<?xml version="1.0" encoding="utf-8"?>
<!-- Generator: Adobe Illustrator 19.2.0, SVG Export Plug-In . SVG Version: 6.00 Build 0)  -->
<svg version="1.1" xmlns="http://www.w3.org/2000/svg" xmlns:xlink="http://www.w3.org/1999/xlink" x="0px" y="0px"
	 viewBox="0 0 40 32" style="enable-background:new 0 0 40 32;" xml:space="preserve">
<style type="text/css">
	.st0{clip-path:url(#SVGID_2_);}
	.st1{clip-path:url(#SVGID_4_);fill:#F5F5F5;}
	.st2{fill:#F5F5F5;}
	.st3{fill:#646464;}
	.st4{fill:none;stroke:#323232;stroke-width:5;stroke-miterlimit:10;}
</style>
<g id="Layer_1">
	<g>
		<defs>
			<path id="SVGID_1_" d="M2,8h37.5V0H5.9C3.7,0,2,1.7,2,3.9V8z"/>
		</defs>
		<use xlink:href="#SVGID_1_"  style="overflow:visible;"/>
		<clipPath id="SVGID_2_">
			<use xlink:href="#SVGID_1_"  style="overflow:visible;"/>
		</clipPath>
		<path class="st0" d="M32,0l3.8,8h-5.6l-3.8-8h-3.8l3.8,8h-5.6L17,0h-3.8L17,8h-5.6L7.6,0H5.8C3.7,0,2,1.8,2,4l0,24
			c0,2.2,1.7,4,3.8,4h30c2.1,0,3.8-1.8,3.8-4V0H32z"/>
	</g>
	<g>
		<defs>
			<path id="SVGID_3_" d="M50.8,6.7h40v-8H54.7c-2.1,0-3.9,1.7-3.9,3.9V6.7z"/>
		</defs>
		<clipPath id="SVGID_4_">
			<use xlink:href="#SVGID_3_"  style="overflow:visible;"/>
		</clipPath>
		<path class="st1" d="M82.8-1.3l4,8h-6l-4-8h-4l4,8h-6l-4-8h-4l4,8h-6l-4-8h-2c-2.2,0-4,1.8-4,4l0,24c0,2.2,1.8,4,4,4h32
			c2.2,0,4-1.8,4-4v-28H82.8z"/>
	</g>
	<path class="st2" d="M32,0l4,8h-6l-4-8h-4l4,8h-6l-4-8h-4l4,8h-6L6,0H4C1.8,0,0,1.8,0,4l0,24c0,2.2,1.8,4,4,4h32c2.2,0,4-1.8,4-4V0
		H32z"/>
	<path class="st3" d="M35.3,28.3H4.4c-0.9,0-1.6-0.7-1.6-1.6V13.1c0-0.9,0.7-1.6,1.6-1.6h30.8c0.9,0,1.6,0.7,1.6,1.6v13.6
		C36.8,27.6,36.1,28.3,35.3,28.3z"/>
</g>
<g id="Layer_2">
	<line class="st4" x1="0" y1="48" x2="40" y2="48"/>
</g>
</svg>
